<svg width="541" height="110" viewBox="0 0 541 110" fill="none" xmlns="http://www.w3.org/2000/svg">
<g clip-path="url(#clip0_3803_262)">
<rect width="541" height="110" fill="white"/>
<rect x="1" y="11" width="78" height="18" fill="#F2ECDD"/>
<rect x="1" y="49" width="28" height="30" fill="#F2ECDD"/>
<rect x="31" y="49" width="98" height="30" fill="#F2ECDD"/>
<rect x="131" y="49" width="88" height="30" fill="#F2ECDD"/>
<rect x="221" y="49" width="68" height="30" fill="#F2ECDD"/>
<rect x="291" y="49" width="48" height="30" fill="#F2ECDD"/>
<rect x="341" y="49" width="38" height="30" fill="#F2ECDD"/>
<rect x="381" y="49" width="68" height="30" fill="#F2ECDD"/>
<rect x="451" y="49" width="28" height="30" fill="#F2ECDD"/>
<rect x="481" y="49" width="28" height="30" fill="#F2ECDD"/>
<rect x="511" y="49" width="28" height="30" fill="#F2ECDD"/>
<rect x="81" y="11" width="78" height="18" fill="#F2ECDD"/>
<rect x="161" y="11" width="78" height="18" fill="#F2ECDD"/>
<rect x="241" y="11" width="78" height="18" fill="#F2ECDD"/>
<rect x="321" y="11" width="78" height="18" fill="#F2ECDD"/>
<rect x="401" y="11" width="78" height="18" fill="#F2ECDD"/>
<rect x="481" y="11" width="28" height="18" fill="#F2ECDD"/>
<rect x="511" y="11" width="28" height="18" fill="#F2ECDD"/>
<path d="M5.59126 3.13636V7.5H5.06286V3.69034H5.03729L3.97195 4.39773V3.8608L5.06286 3.13636H5.59126Z" fill="black"/>
<path d="M5.59126 83.1364V87.5H5.06286V83.6903H5.03729L3.97195 84.3977V83.8608L5.06286 83.1364H5.59126Z" fill="black"/>
<path d="M33.4246 86.6051V86.1705L35.3422 83.1364H35.6576V83.8097H35.4445L33.9956 86.1023V86.1364H36.578V86.6051H33.4246ZM35.4786 87.5V86.473V86.2706V83.1364H35.9814V87.5H35.4786Z" fill="black"/>
<path d="M133.666 83.1364V87.5H133.138V83.6903H133.112L132.047 84.3977V83.8608L133.138 83.1364H133.666ZM134.819 86.6051V86.1705L136.737 83.1364H137.052V83.8097H136.839L135.39 86.1023V86.1364H137.973V86.6051H134.819ZM136.873 87.5V86.473V86.2706V83.1364H137.376V87.5H136.873Z" fill="black"/>
<path d="M123.681 83.1364V87.5H123.153V83.6903H123.127L122.062 84.3977V83.8608L123.153 83.1364H123.681ZM126.411 87.5597C126.129 87.5597 125.879 87.5114 125.658 87.4148C125.44 87.3182 125.266 87.1839 125.136 87.0121C125.009 86.8388 124.939 86.6378 124.928 86.4091H125.464C125.476 86.5497 125.524 86.6712 125.609 86.7734C125.695 86.8743 125.806 86.9524 125.944 87.0078C126.082 87.0632 126.234 87.0909 126.402 87.0909C126.589 87.0909 126.756 87.0582 126.901 86.9929C127.045 86.9276 127.159 86.8366 127.241 86.7202C127.324 86.6037 127.365 86.4688 127.365 86.3153C127.365 86.1548 127.325 86.0135 127.246 85.8913C127.166 85.7678 127.05 85.6712 126.896 85.6016C126.743 85.532 126.555 85.4972 126.334 85.4972H125.984V85.0284H126.334C126.507 85.0284 126.659 84.9972 126.79 84.9347C126.922 84.8722 127.025 84.7841 127.099 84.6705C127.174 84.5568 127.212 84.4233 127.212 84.2699C127.212 84.1222 127.179 83.9936 127.114 83.8842C127.048 83.7749 126.956 83.6896 126.837 83.6286C126.719 83.5675 126.58 83.5369 126.419 83.5369C126.268 83.5369 126.126 83.5646 125.993 83.62C125.861 83.674 125.753 83.7528 125.669 83.8565C125.585 83.9588 125.54 84.0824 125.533 84.2273H125.021C125.03 83.9986 125.099 83.7983 125.228 83.6264C125.357 83.4531 125.526 83.3182 125.735 83.2216C125.945 83.125 126.176 83.0767 126.428 83.0767C126.697 83.0767 126.929 83.1314 127.122 83.2408C127.315 83.3487 127.464 83.4915 127.567 83.669C127.671 83.8466 127.723 84.0384 127.723 84.2443C127.723 84.4901 127.658 84.6996 127.529 84.8729C127.401 85.0462 127.227 85.1662 127.007 85.233V85.267C127.283 85.3125 127.498 85.4297 127.653 85.6186C127.808 85.8061 127.885 86.0384 127.885 86.3153C127.885 86.5526 127.82 86.7656 127.691 86.9545C127.563 87.142 127.388 87.2898 127.167 87.3977C126.945 87.5057 126.693 87.5597 126.411 87.5597Z" fill="black"/>
<path d="M221.725 87.5V87.1165L223.165 85.5398C223.335 85.3551 223.474 85.1946 223.583 85.0582C223.692 84.9205 223.773 84.7912 223.826 84.6705C223.88 84.5483 223.907 84.4205 223.907 84.2869C223.907 84.1335 223.87 84.0007 223.796 83.8885C223.724 83.7763 223.624 83.6896 223.498 83.6286C223.371 83.5675 223.229 83.5369 223.072 83.5369C222.904 83.5369 222.758 83.5717 222.633 83.6413C222.509 83.7095 222.413 83.8054 222.345 83.929C222.278 84.0526 222.245 84.1974 222.245 84.3636H221.742C221.742 84.108 221.801 83.8835 221.919 83.6903C222.037 83.4972 222.197 83.3466 222.401 83.2386C222.605 83.1307 222.835 83.0767 223.089 83.0767C223.344 83.0767 223.571 83.1307 223.768 83.2386C223.966 83.3466 224.121 83.4922 224.233 83.6754C224.345 83.8587 224.401 84.0625 224.401 84.2869C224.401 84.4474 224.372 84.6044 224.314 84.7578C224.257 84.9098 224.158 85.0795 224.016 85.267C223.875 85.4531 223.68 85.6804 223.43 85.9489L222.45 86.9972V87.0312H224.478V87.5H221.725ZM226.832 87.5597C226.551 87.5597 226.3 87.5114 226.08 87.4148C225.862 87.3182 225.688 87.1839 225.558 87.0121C225.43 86.8388 225.361 86.6378 225.349 86.4091H225.886C225.898 86.5497 225.946 86.6712 226.031 86.7734C226.116 86.8743 226.228 86.9524 226.366 87.0078C226.504 87.0632 226.656 87.0909 226.824 87.0909C227.011 87.0909 227.178 87.0582 227.322 86.9929C227.467 86.9276 227.581 86.8366 227.663 86.7202C227.746 86.6037 227.787 86.4688 227.787 86.3153C227.787 86.1548 227.747 86.0135 227.668 85.8913C227.588 85.7678 227.472 85.6712 227.318 85.6016C227.165 85.532 226.977 85.4972 226.756 85.4972H226.406V85.0284H226.756C226.929 85.0284 227.081 84.9972 227.212 84.9347C227.344 84.8722 227.447 84.7841 227.521 84.6705C227.596 84.5568 227.634 84.4233 227.634 84.2699C227.634 84.1222 227.601 83.9936 227.536 83.8842C227.47 83.7749 227.378 83.6896 227.259 83.6286C227.141 83.5675 227.001 83.5369 226.841 83.5369C226.69 83.5369 226.548 83.5646 226.415 83.62C226.283 83.674 226.175 83.7528 226.091 83.8565C226.007 83.9588 225.962 84.0824 225.955 84.2273H225.443C225.452 83.9986 225.521 83.7983 225.65 83.6264C225.779 83.4531 225.948 83.3182 226.157 83.2216C226.367 83.125 226.598 83.0767 226.849 83.0767C227.119 83.0767 227.351 83.1314 227.544 83.2408C227.737 83.3487 227.886 83.4915 227.989 83.669C228.093 83.8466 228.145 84.0384 228.145 84.2443C228.145 84.4901 228.08 84.6996 227.951 84.8729C227.823 85.0462 227.649 85.1662 227.429 85.233V85.267C227.705 85.3125 227.92 85.4297 228.075 85.6186C228.229 85.8061 228.307 86.0384 228.307 86.3153C228.307 86.5526 228.242 86.7656 228.113 86.9545C227.985 87.142 227.81 87.2898 227.589 87.3977C227.367 87.5057 227.115 87.5597 226.832 87.5597Z" fill="black"/>
<path d="M281.763 87.5V87.1165L283.204 85.5398C283.373 85.3551 283.512 85.1946 283.621 85.0582C283.731 84.9205 283.812 84.7912 283.864 84.6705C283.918 84.5483 283.945 84.4205 283.945 84.2869C283.945 84.1335 283.908 84.0007 283.834 83.8885C283.762 83.7763 283.662 83.6896 283.536 83.6286C283.41 83.5675 283.267 83.5369 283.11 83.5369C282.942 83.5369 282.796 83.5717 282.671 83.6413C282.547 83.7095 282.451 83.8054 282.383 83.929C282.316 84.0526 282.283 84.1974 282.283 84.3636H281.78C281.78 84.108 281.839 83.8835 281.957 83.6903C282.075 83.4972 282.236 83.3466 282.439 83.2386C282.643 83.1307 282.873 83.0767 283.127 83.0767C283.383 83.0767 283.609 83.1307 283.807 83.2386C284.004 83.3466 284.159 83.4922 284.271 83.6754C284.383 83.8587 284.439 84.0625 284.439 84.2869C284.439 84.4474 284.41 84.6044 284.352 84.7578C284.295 84.9098 284.196 85.0795 284.054 85.267C283.913 85.4531 283.718 85.6804 283.468 85.9489L282.488 86.9972V87.0312H284.516V87.5H281.763ZM286.785 83.0767C286.964 83.0781 287.143 83.1122 287.322 83.179C287.501 83.2457 287.665 83.3565 287.812 83.5114C287.96 83.6648 288.079 83.8743 288.168 84.1399C288.258 84.4055 288.302 84.7386 288.302 85.1392C288.302 85.527 288.265 85.8714 288.191 86.1726C288.119 86.4723 288.014 86.7251 287.876 86.9311C287.74 87.1371 287.574 87.2933 287.378 87.3999C287.183 87.5064 286.963 87.5597 286.717 87.5597C286.473 87.5597 286.255 87.5114 286.063 87.4148C285.873 87.3168 285.716 87.1811 285.594 87.0078C285.473 86.8331 285.396 86.6307 285.362 86.4006H285.882C285.929 86.6009 286.022 86.7663 286.161 86.897C286.302 87.0263 286.487 87.0909 286.717 87.0909C287.054 87.0909 287.319 86.9439 287.514 86.6499C287.71 86.3558 287.808 85.9403 287.808 85.4034H287.774C287.694 85.5227 287.6 85.6257 287.491 85.7124C287.381 85.799 287.26 85.8658 287.126 85.9126C286.993 85.9595 286.851 85.983 286.7 85.983C286.45 85.983 286.221 85.9212 286.012 85.7976C285.804 85.6726 285.638 85.5014 285.513 85.2841C285.39 85.0653 285.328 84.8153 285.328 84.5341C285.328 84.267 285.388 84.0227 285.507 83.8011C285.628 83.5781 285.797 83.4006 286.014 83.2685C286.233 83.1364 286.49 83.0724 286.785 83.0767ZM286.785 83.5455C286.606 83.5455 286.445 83.5902 286.302 83.6797C286.16 83.7678 286.047 83.8871 285.963 84.0376C285.88 84.1868 285.839 84.3523 285.839 84.5341C285.839 84.7159 285.879 84.8814 285.959 85.0305C286.04 85.1783 286.15 85.2962 286.289 85.3842C286.429 85.4709 286.589 85.5142 286.768 85.5142C286.903 85.5142 287.029 85.4879 287.145 85.4354C287.262 85.3814 287.363 85.3082 287.45 85.2159C287.538 85.1222 287.607 85.0163 287.657 84.8984C287.706 84.7791 287.731 84.6548 287.731 84.5256C287.731 84.3551 287.69 84.1953 287.608 84.0462C287.527 83.897 287.415 83.7763 287.271 83.6839C287.129 83.5916 286.967 83.5455 286.785 83.5455Z" fill="black"/>
<path d="M293.141 87.5597C292.86 87.5597 292.609 87.5114 292.389 87.4148C292.17 87.3182 291.996 87.1839 291.867 87.0121C291.739 86.8388 291.669 86.6378 291.658 86.4091H292.195C292.206 86.5497 292.255 86.6712 292.34 86.7734C292.425 86.8743 292.537 86.9524 292.674 87.0078C292.812 87.0632 292.965 87.0909 293.132 87.0909C293.32 87.0909 293.486 87.0582 293.631 86.9929C293.776 86.9276 293.89 86.8366 293.972 86.7202C294.054 86.6037 294.096 86.4688 294.096 86.3153C294.096 86.1548 294.056 86.0135 293.976 85.8913C293.897 85.7678 293.78 85.6712 293.627 85.6016C293.473 85.532 293.286 85.4972 293.064 85.4972H292.715V85.0284H293.064C293.238 85.0284 293.39 84.9972 293.52 84.9347C293.652 84.8722 293.755 84.7841 293.829 84.6705C293.904 84.5568 293.942 84.4233 293.942 84.2699C293.942 84.1222 293.909 83.9936 293.844 83.8842C293.779 83.7749 293.686 83.6896 293.567 83.6286C293.449 83.5675 293.31 83.5369 293.15 83.5369C292.999 83.5369 292.857 83.5646 292.723 83.62C292.591 83.674 292.483 83.7528 292.4 83.8565C292.316 83.9588 292.27 84.0824 292.263 84.2273H291.752C291.76 83.9986 291.829 83.7983 291.958 83.6264C292.088 83.4531 292.257 83.3182 292.466 83.2216C292.676 83.125 292.907 83.0767 293.158 83.0767C293.428 83.0767 293.659 83.1314 293.853 83.2408C294.046 83.3487 294.194 83.4915 294.298 83.669C294.402 83.8466 294.453 84.0384 294.453 84.2443C294.453 84.4901 294.389 84.6996 294.26 84.8729C294.132 85.0462 293.958 85.1662 293.738 85.233V85.267C294.013 85.3125 294.228 85.4297 294.383 85.6186C294.538 85.8061 294.615 86.0384 294.615 86.3153C294.615 86.5526 294.551 86.7656 294.422 86.9545C294.294 87.142 294.119 87.2898 293.897 87.3977C293.676 87.5057 293.424 87.5597 293.141 87.5597ZM296.91 87.5597C296.589 87.5597 296.316 87.4723 296.09 87.2976C295.864 87.1214 295.691 86.8665 295.572 86.5327C295.453 86.1974 295.393 85.7926 295.393 85.3182C295.393 84.8466 295.453 84.4439 295.572 84.1101C295.693 83.7749 295.866 83.5192 296.092 83.343C296.319 83.1655 296.592 83.0767 296.91 83.0767C297.228 83.0767 297.5 83.1655 297.726 83.343C297.953 83.5192 298.127 83.7749 298.246 84.1101C298.367 84.4439 298.427 84.8466 298.427 85.3182C298.427 85.7926 298.368 86.1974 298.248 86.5327C298.129 86.8665 297.956 87.1214 297.73 87.2976C297.505 87.4723 297.231 87.5597 296.91 87.5597ZM296.91 87.0909C297.228 87.0909 297.475 86.9375 297.652 86.6307C297.828 86.3239 297.916 85.8864 297.916 85.3182C297.916 84.9403 297.875 84.6186 297.794 84.353C297.715 84.0874 297.6 83.8849 297.449 83.7457C297.3 83.6065 297.12 83.5369 296.91 83.5369C296.595 83.5369 296.348 83.6925 296.171 84.0036C295.993 84.3132 295.904 84.7514 295.904 85.3182C295.904 85.696 295.944 86.017 296.024 86.2812C296.103 86.5455 296.218 86.7464 296.367 86.8842C296.517 87.022 296.699 87.0909 296.91 87.0909Z" fill="black"/>
<path d="M333.091 87.5597C332.81 87.5597 332.559 87.5114 332.339 87.4148C332.12 87.3182 331.946 87.1839 331.817 87.0121C331.689 86.8388 331.62 86.6378 331.608 86.4091H332.145C332.157 86.5497 332.205 86.6712 332.29 86.7734C332.375 86.8743 332.487 86.9524 332.625 87.0078C332.762 87.0632 332.915 87.0909 333.083 87.0909C333.27 87.0909 333.436 87.0582 333.581 86.9929C333.726 86.9276 333.84 86.8366 333.922 86.7202C334.005 86.6037 334.046 86.4688 334.046 86.3153C334.046 86.1548 334.006 86.0135 333.926 85.8913C333.847 85.7678 333.73 85.6712 333.577 85.6016C333.424 85.532 333.236 85.4972 333.014 85.4972H332.665V85.0284H333.014C333.188 85.0284 333.34 84.9972 333.47 84.9347C333.603 84.8722 333.706 84.7841 333.779 84.6705C333.855 84.5568 333.892 84.4233 333.892 84.2699C333.892 84.1222 333.86 83.9936 333.794 83.8842C333.729 83.7749 333.637 83.6896 333.517 83.6286C333.399 83.5675 333.26 83.5369 333.1 83.5369C332.949 83.5369 332.807 83.5646 332.674 83.62C332.541 83.674 332.434 83.7528 332.35 83.8565C332.266 83.9588 332.22 84.0824 332.213 84.2273H331.702C331.71 83.9986 331.779 83.7983 331.909 83.6264C332.038 83.4531 332.207 83.3182 332.416 83.2216C332.626 83.125 332.857 83.0767 333.108 83.0767C333.378 83.0767 333.61 83.1314 333.803 83.2408C333.996 83.3487 334.144 83.4915 334.248 83.669C334.352 83.8466 334.404 84.0384 334.404 84.2443C334.404 84.4901 334.339 84.6996 334.21 84.8729C334.082 85.0462 333.908 85.1662 333.688 85.233V85.267C333.963 85.3125 334.179 85.4297 334.333 85.6186C334.488 85.8061 334.566 86.0384 334.566 86.3153C334.566 86.5526 334.501 86.7656 334.372 86.9545C334.244 87.142 334.069 87.2898 333.848 87.3977C333.626 87.5057 333.374 87.5597 333.091 87.5597ZM335.335 86.6051V86.1705L337.252 83.1364H337.568V83.8097H337.355L335.906 86.1023V86.1364H338.488V86.6051H335.335ZM337.389 87.5V86.473V86.2706V83.1364H337.892V87.5H337.389Z" fill="black"/>
<path d="M343.191 87.5597C342.91 87.5597 342.659 87.5114 342.439 87.4148C342.22 87.3182 342.046 87.1839 341.917 87.0121C341.789 86.8388 341.719 86.6378 341.708 86.4091H342.245C342.256 86.5497 342.304 86.6712 342.39 86.7734C342.475 86.8743 342.586 86.9524 342.724 87.0078C342.862 87.0632 343.015 87.0909 343.182 87.0909C343.37 87.0909 343.536 87.0582 343.681 86.9929C343.826 86.9276 343.939 86.8366 344.022 86.7202C344.104 86.6037 344.145 86.4688 344.145 86.3153C344.145 86.1548 344.106 86.0135 344.026 85.8913C343.946 85.7678 343.83 85.6712 343.677 85.6016C343.523 85.532 343.336 85.4972 343.114 85.4972H342.765V85.0284H343.114C343.287 85.0284 343.439 84.9972 343.57 84.9347C343.702 84.8722 343.805 84.7841 343.879 84.6705C343.954 84.5568 343.992 84.4233 343.992 84.2699C343.992 84.1222 343.959 83.9936 343.894 83.8842C343.829 83.7749 343.736 83.6896 343.617 83.6286C343.499 83.5675 343.36 83.5369 343.199 83.5369C343.049 83.5369 342.907 83.5646 342.773 83.62C342.641 83.674 342.533 83.7528 342.449 83.8565C342.366 83.9588 342.32 84.0824 342.313 84.2273H341.802C341.81 83.9986 341.879 83.7983 342.008 83.6264C342.138 83.4531 342.307 83.3182 342.515 83.2216C342.726 83.125 342.956 83.0767 343.208 83.0767C343.478 83.0767 343.709 83.1314 343.902 83.2408C344.096 83.3487 344.244 83.4915 344.348 83.669C344.451 83.8466 344.503 84.0384 344.503 84.2443C344.503 84.4901 344.439 84.6996 344.309 84.8729C344.182 85.0462 344.008 85.1662 343.787 85.233V85.267C344.063 85.3125 344.278 85.4297 344.433 85.6186C344.588 85.8061 344.665 86.0384 344.665 86.3153C344.665 86.5526 344.601 86.7656 344.471 86.9545C344.343 87.142 344.169 87.2898 343.947 87.3977C343.726 87.5057 343.473 87.5597 343.191 87.5597ZM346.9 87.5597C346.65 87.5597 346.425 87.5099 346.225 87.4105C346.025 87.3111 345.864 87.1747 345.743 87.0014C345.623 86.8281 345.557 86.6307 345.545 86.4091H346.057C346.076 86.6065 346.166 86.7699 346.325 86.8991C346.486 87.027 346.677 87.0909 346.9 87.0909C347.079 87.0909 347.238 87.049 347.378 86.9652C347.518 86.8814 347.628 86.7663 347.708 86.62C347.789 86.4723 347.829 86.3054 347.829 86.1193C347.829 85.929 347.787 85.7592 347.704 85.6101C347.621 85.4595 347.508 85.3409 347.363 85.2543C347.218 85.1676 347.052 85.1236 346.866 85.1222C346.733 85.1207 346.596 85.1413 346.455 85.1839C346.314 85.2251 346.199 85.2784 346.108 85.3438L345.613 85.2841L345.878 83.1364H348.145V83.6051H346.321L346.167 84.892H346.193C346.282 84.821 346.395 84.7621 346.53 84.7152C346.665 84.6683 346.805 84.6449 346.951 84.6449C347.218 84.6449 347.456 84.7088 347.665 84.8366C347.875 84.9631 348.04 85.1364 348.16 85.3565C348.28 85.5767 348.341 85.8281 348.341 86.1108C348.341 86.3892 348.278 86.6378 348.153 86.8565C348.03 87.0739 347.859 87.2457 347.642 87.3722C347.424 87.4972 347.177 87.5597 346.9 87.5597Z" fill="black"/>
<path d="M373.167 87.5597C372.886 87.5597 372.635 87.5114 372.415 87.4148C372.196 87.3182 372.022 87.1839 371.893 87.0121C371.765 86.8388 371.696 86.6378 371.684 86.4091H372.221C372.233 86.5497 372.281 86.6712 372.366 86.7734C372.451 86.8743 372.563 86.9524 372.701 87.0078C372.839 87.0632 372.991 87.0909 373.159 87.0909C373.346 87.0909 373.513 87.0582 373.657 86.9929C373.802 86.9276 373.916 86.8366 373.998 86.7202C374.081 86.6037 374.122 86.4688 374.122 86.3153C374.122 86.1548 374.082 86.0135 374.003 85.8913C373.923 85.7678 373.807 85.6712 373.653 85.6016C373.5 85.532 373.312 85.4972 373.091 85.4972H372.741V85.0284H373.091C373.264 85.0284 373.416 84.9972 373.547 84.9347C373.679 84.8722 373.782 84.7841 373.856 84.6705C373.931 84.5568 373.968 84.4233 373.968 84.2699C373.968 84.1222 373.936 83.9936 373.87 83.8842C373.805 83.7749 373.713 83.6896 373.593 83.6286C373.476 83.5675 373.336 83.5369 373.176 83.5369C373.025 83.5369 372.883 83.5646 372.75 83.62C372.618 83.674 372.51 83.7528 372.426 83.8565C372.342 83.9588 372.297 84.0824 372.29 84.2273H371.778C371.787 83.9986 371.856 83.7983 371.985 83.6264C372.114 83.4531 372.283 83.3182 372.492 83.2216C372.702 83.125 372.933 83.0767 373.184 83.0767C373.454 83.0767 373.686 83.1314 373.879 83.2408C374.072 83.3487 374.221 83.4915 374.324 83.669C374.428 83.8466 374.48 84.0384 374.48 84.2443C374.48 84.4901 374.415 84.6996 374.286 84.8729C374.158 85.0462 373.984 85.1662 373.764 85.233V85.267C374.04 85.3125 374.255 85.4297 374.41 85.6186C374.564 85.8061 374.642 86.0384 374.642 86.3153C374.642 86.5526 374.577 86.7656 374.448 86.9545C374.32 87.142 374.145 87.2898 373.924 87.3977C373.702 87.5057 373.45 87.5597 373.167 87.5597ZM376.911 87.5597C376.618 87.5597 376.36 87.5078 376.135 87.4041C375.912 87.299 375.738 87.1548 375.613 86.9716C375.488 86.7869 375.427 86.5767 375.428 86.3409C375.427 86.1562 375.463 85.9858 375.537 85.8295C375.611 85.6719 375.711 85.5405 375.839 85.4354C375.968 85.3288 376.113 85.2614 376.272 85.233V85.2074C376.063 85.1534 375.897 85.0362 375.773 84.8558C375.65 84.674 375.589 84.4673 375.59 84.2358C375.589 84.0142 375.645 83.8161 375.758 83.6413C375.872 83.4666 376.028 83.3288 376.227 83.228C376.427 83.1271 376.655 83.0767 376.911 83.0767C377.164 83.0767 377.39 83.1271 377.589 83.228C377.787 83.3288 377.944 83.4666 378.057 83.6413C378.172 83.8161 378.231 84.0142 378.232 84.2358C378.231 84.4673 378.167 84.674 378.042 84.8558C377.919 85.0362 377.755 85.1534 377.55 85.2074V85.233C377.708 85.2614 377.85 85.3288 377.976 85.4354C378.103 85.5405 378.204 85.6719 378.279 85.8295C378.354 85.9858 378.392 86.1562 378.394 86.3409C378.392 86.5767 378.329 86.7869 378.202 86.9716C378.077 87.1548 377.903 87.299 377.68 87.4041C377.459 87.5078 377.202 87.5597 376.911 87.5597ZM376.911 87.0909C377.108 87.0909 377.279 87.0589 377.422 86.995C377.566 86.9311 377.677 86.8409 377.755 86.7244C377.833 86.608 377.873 86.4716 377.874 86.3153C377.873 86.1506 377.83 86.005 377.746 85.8786C377.662 85.7521 377.548 85.6527 377.403 85.5803C377.26 85.5078 377.096 85.4716 376.911 85.4716C376.725 85.4716 376.559 85.5078 376.412 85.5803C376.267 85.6527 376.153 85.7521 376.069 85.8786C375.987 86.005 375.946 86.1506 375.948 86.3153C375.946 86.4716 375.984 86.608 376.061 86.7244C376.139 86.8409 376.25 86.9311 376.395 86.995C376.54 87.0589 376.712 87.0909 376.911 87.0909ZM376.911 85.0199C377.067 85.0199 377.206 84.9886 377.326 84.9261C377.449 84.8636 377.544 84.7763 377.614 84.6641C377.684 84.5518 377.719 84.4205 377.721 84.2699C377.719 84.1222 377.684 83.9936 377.616 83.8842C377.548 83.7734 377.454 83.6882 377.333 83.6286C377.212 83.5675 377.071 83.5369 376.911 83.5369C376.748 83.5369 376.605 83.5675 376.483 83.6286C376.361 83.6882 376.266 83.7734 376.199 83.8842C376.133 83.9936 376.1 84.1222 376.101 84.2699C376.1 84.4205 376.133 84.5518 376.201 84.6641C376.271 84.7763 376.367 84.8636 376.489 84.9261C376.611 84.9886 376.752 85.0199 376.911 85.0199Z" fill="black"/>
<path d="M383.144 87.5597C382.863 87.5597 382.612 87.5114 382.392 87.4148C382.173 87.3182 381.999 87.1839 381.87 87.0121C381.742 86.8388 381.672 86.6378 381.661 86.4091H382.198C382.209 86.5497 382.258 86.6712 382.343 86.7734C382.428 86.8743 382.54 86.9524 382.677 87.0078C382.815 87.0632 382.968 87.0909 383.135 87.0909C383.323 87.0909 383.489 87.0582 383.634 86.9929C383.779 86.9276 383.892 86.8366 383.975 86.7202C384.057 86.6037 384.098 86.4688 384.098 86.3153C384.098 86.1548 384.059 86.0135 383.979 85.8913C383.9 85.7678 383.783 85.6712 383.63 85.6016C383.476 85.532 383.289 85.4972 383.067 85.4972H382.718V85.0284H383.067C383.241 85.0284 383.392 84.9972 383.523 84.9347C383.655 84.8722 383.758 84.7841 383.832 84.6705C383.907 84.5568 383.945 84.4233 383.945 84.2699C383.945 84.1222 383.912 83.9936 383.847 83.8842C383.782 83.7749 383.689 83.6896 383.57 83.6286C383.452 83.5675 383.313 83.5369 383.152 83.5369C383.002 83.5369 382.86 83.5646 382.726 83.62C382.594 83.674 382.486 83.7528 382.402 83.8565C382.319 83.9588 382.273 84.0824 382.266 84.2273H381.755C381.763 83.9986 381.832 83.7983 381.961 83.6264C382.091 83.4531 382.26 83.3182 382.468 83.2216C382.679 83.125 382.91 83.0767 383.161 83.0767C383.431 83.0767 383.662 83.1314 383.856 83.2408C384.049 83.3487 384.197 83.4915 384.301 83.669C384.405 83.8466 384.456 84.0384 384.456 84.2443C384.456 84.4901 384.392 84.6996 384.263 84.8729C384.135 85.0462 383.961 85.1662 383.741 85.233V85.267C384.016 85.3125 384.231 85.4297 384.386 85.6186C384.541 85.8061 384.618 86.0384 384.618 86.3153C384.618 86.5526 384.554 86.7656 384.424 86.9545C384.297 87.142 384.122 87.2898 383.9 87.3977C383.679 87.5057 383.427 87.5597 383.144 87.5597ZM386.879 83.0767C387.058 83.0781 387.237 83.1122 387.416 83.179C387.595 83.2457 387.758 83.3565 387.906 83.5114C388.054 83.6648 388.172 83.8743 388.262 84.1399C388.351 84.4055 388.396 84.7386 388.396 85.1392C388.396 85.527 388.359 85.8714 388.285 86.1726C388.213 86.4723 388.108 86.7251 387.97 86.9311C387.834 87.1371 387.667 87.2933 387.471 87.3999C387.277 87.5064 387.057 87.5597 386.811 87.5597C386.566 87.5597 386.348 87.5114 386.157 87.4148C385.966 87.3168 385.81 87.1811 385.688 87.0078C385.567 86.8331 385.49 86.6307 385.456 86.4006H385.976C386.022 86.6009 386.116 86.7663 386.255 86.897C386.395 87.0263 386.581 87.0909 386.811 87.0909C387.147 87.0909 387.413 86.9439 387.608 86.6499C387.804 86.3558 387.902 85.9403 387.902 85.4034H387.868C387.788 85.5227 387.694 85.6257 387.584 85.7124C387.475 85.799 387.353 85.8658 387.22 85.9126C387.086 85.9595 386.944 85.983 386.794 85.983C386.544 85.983 386.314 85.9212 386.106 85.7976C385.898 85.6726 385.732 85.5014 385.607 85.2841C385.483 85.0653 385.422 84.8153 385.422 84.5341C385.422 84.267 385.481 84.0227 385.601 83.8011C385.721 83.5781 385.89 83.4006 386.108 83.2685C386.326 83.1364 386.584 83.0724 386.879 83.0767ZM386.879 83.5455C386.7 83.5455 386.539 83.5902 386.395 83.6797C386.253 83.7678 386.14 83.8871 386.057 84.0376C385.974 84.1868 385.933 84.3523 385.933 84.5341C385.933 84.7159 385.973 84.8814 386.052 85.0305C386.133 85.1783 386.243 85.2962 386.383 85.3842C386.523 85.4709 386.683 85.5142 386.862 85.5142C386.997 85.5142 387.123 85.4879 387.239 85.4354C387.356 85.3814 387.457 85.3082 387.544 85.2159C387.632 85.1222 387.701 85.0163 387.75 84.8984C387.8 84.7791 387.825 84.6548 387.825 84.5256C387.825 84.3551 387.784 84.1953 387.701 84.0462C387.62 83.897 387.508 83.7763 387.365 83.6839C387.223 83.5916 387.061 83.5455 386.879 83.5455Z" fill="black"/>
<path d="M441.599 86.6051V86.1705L443.517 83.1364H443.832V83.8097H443.619L442.17 86.1023V86.1364H444.753V86.6051H441.599ZM443.653 87.5V86.473V86.2706V83.1364H444.156V87.5H443.653ZM446.915 87.5597C446.665 87.5597 446.44 87.5099 446.24 87.4105C446.039 87.3111 445.879 87.1747 445.758 87.0014C445.637 86.8281 445.571 86.6307 445.56 86.4091H446.071C446.091 86.6065 446.181 86.7699 446.34 86.8991C446.5 87.027 446.692 87.0909 446.915 87.0909C447.094 87.0909 447.253 87.049 447.392 86.9652C447.533 86.8814 447.643 86.7663 447.722 86.62C447.803 86.4723 447.844 86.3054 447.844 86.1193C447.844 85.929 447.802 85.7592 447.718 85.6101C447.636 85.4595 447.522 85.3409 447.377 85.2543C447.232 85.1676 447.067 85.1236 446.881 85.1222C446.747 85.1207 446.61 85.1413 446.47 85.1839C446.329 85.2251 446.213 85.2784 446.122 85.3438L445.628 85.2841L445.892 83.1364H448.159V83.6051H446.335L446.182 84.892H446.208C446.297 84.821 446.409 84.7621 446.544 84.7152C446.679 84.6683 446.82 84.6449 446.966 84.6449C447.233 84.6449 447.471 84.7088 447.68 84.8366C447.89 84.9631 448.055 85.1364 448.174 85.3565C448.295 85.5767 448.355 85.8281 448.355 86.1108C448.355 86.3892 448.293 86.6378 448.168 86.8565C448.044 87.0739 447.874 87.2457 447.656 87.3722C447.439 87.4972 447.192 87.5597 446.915 87.5597Z" fill="black"/>
<path d="M451.553 86.6051V86.1705L453.47 83.1364H453.786V83.8097H453.572L452.124 86.1023V86.1364H454.706V86.6051H451.553ZM453.607 87.5V86.473V86.2706V83.1364H454.109V87.5H453.607ZM456.953 87.5597C456.774 87.5568 456.595 87.5227 456.416 87.4574C456.237 87.392 456.074 87.282 455.926 87.1271C455.779 86.9709 455.66 86.7599 455.57 86.4943C455.481 86.2273 455.436 85.892 455.436 85.4886C455.436 85.1023 455.472 84.7599 455.545 84.4616C455.617 84.1619 455.722 83.9098 455.86 83.7053C455.998 83.4993 456.164 83.343 456.359 83.2365C456.555 83.13 456.776 83.0767 457.021 83.0767C457.266 83.0767 457.483 83.1257 457.673 83.2237C457.865 83.3203 458.021 83.4553 458.142 83.6286C458.263 83.8018 458.341 84.0014 458.377 84.2273H457.857C457.808 84.0312 457.715 83.8686 457.575 83.7393C457.436 83.6101 457.252 83.5455 457.021 83.5455C456.683 83.5455 456.417 83.6925 456.222 83.9865C456.029 84.2805 455.932 84.6932 455.931 85.2244H455.965C456.044 85.1037 456.139 85.0007 456.248 84.9155C456.359 84.8288 456.481 84.7621 456.615 84.7152C456.748 84.6683 456.889 84.6449 457.039 84.6449C457.289 84.6449 457.517 84.7074 457.725 84.8324C457.932 84.956 458.098 85.1271 458.223 85.3459C458.348 85.5632 458.411 85.8125 458.411 86.0938C458.411 86.3636 458.35 86.6108 458.23 86.8352C458.109 87.0582 457.939 87.2358 457.72 87.3679C457.503 87.4986 457.247 87.5625 456.953 87.5597ZM456.953 87.0909C457.132 87.0909 457.293 87.0462 457.435 86.9567C457.578 86.8672 457.691 86.7472 457.774 86.5966C457.857 86.446 457.899 86.2784 457.899 86.0938C457.899 85.9134 457.859 85.7493 457.778 85.6016C457.698 85.4524 457.588 85.3338 457.448 85.2457C457.308 85.1577 457.149 85.1136 456.97 85.1136C456.835 85.1136 456.71 85.1406 456.593 85.1946C456.477 85.2472 456.374 85.3196 456.286 85.4119C456.2 85.5043 456.132 85.6101 456.082 85.7294C456.032 85.8473 456.007 85.9716 456.007 86.1023C456.007 86.2756 456.048 86.4375 456.129 86.5881C456.211 86.7386 456.323 86.8601 456.465 86.9524C456.609 87.0447 456.771 87.0909 456.953 87.0909Z" fill="black"/>
<path d="M471.576 86.6051V86.1705L473.494 83.1364H473.809V83.8097H473.596L472.147 86.1023V86.1364H474.729V86.6051H471.576ZM473.63 87.5V86.473V86.2706V83.1364H474.133V87.5H473.63ZM476.926 87.5597C476.633 87.5597 476.374 87.5078 476.15 87.4041C475.927 87.299 475.753 87.1548 475.628 86.9716C475.503 86.7869 475.441 86.5767 475.443 86.3409C475.441 86.1562 475.477 85.9858 475.551 85.8295C475.625 85.6719 475.726 85.5405 475.854 85.4354C475.983 85.3288 476.127 85.2614 476.286 85.233V85.2074C476.078 85.1534 475.911 85.0362 475.788 84.8558C475.664 84.674 475.603 84.4673 475.605 84.2358C475.603 84.0142 475.659 83.8161 475.773 83.6413C475.887 83.4666 476.043 83.3288 476.242 83.228C476.442 83.1271 476.67 83.0767 476.926 83.0767C477.178 83.0767 477.404 83.1271 477.603 83.228C477.802 83.3288 477.958 83.4666 478.072 83.6413C478.187 83.8161 478.245 84.0142 478.247 84.2358C478.245 84.4673 478.182 84.674 478.057 84.8558C477.933 85.0362 477.769 85.1534 477.565 85.2074V85.233C477.722 85.2614 477.865 85.3288 477.991 85.4354C478.117 85.5405 478.218 85.6719 478.294 85.8295C478.369 85.9858 478.407 86.1562 478.409 86.3409C478.407 86.5767 478.343 86.7869 478.217 86.9716C478.092 87.1548 477.918 87.299 477.695 87.4041C477.473 87.5078 477.217 87.5597 476.926 87.5597ZM476.926 87.0909C477.123 87.0909 477.294 87.0589 477.437 86.995C477.58 86.9311 477.691 86.8409 477.769 86.7244C477.847 86.608 477.887 86.4716 477.889 86.3153C477.887 86.1506 477.845 86.005 477.761 85.8786C477.677 85.7521 477.563 85.6527 477.418 85.5803C477.274 85.5078 477.11 85.4716 476.926 85.4716C476.74 85.4716 476.573 85.5078 476.427 85.5803C476.282 85.6527 476.168 85.7521 476.084 85.8786C476.002 86.005 475.961 86.1506 475.963 86.3153C475.961 86.4716 475.999 86.608 476.075 86.7244C476.154 86.8409 476.265 86.9311 476.41 86.995C476.555 87.0589 476.727 87.0909 476.926 87.0909ZM476.926 85.0199C477.082 85.0199 477.22 84.9886 477.341 84.9261C477.463 84.8636 477.559 84.7763 477.629 84.6641C477.698 84.5518 477.734 84.4205 477.735 84.2699C477.734 84.1222 477.699 83.9936 477.631 83.8842C477.563 83.7734 477.468 83.6882 477.347 83.6286C477.227 83.5675 477.086 83.5369 476.926 83.5369C476.762 83.5369 476.619 83.5675 476.497 83.6286C476.375 83.6882 476.281 83.7734 476.214 83.8842C476.147 83.9936 476.115 84.1222 476.116 84.2699C476.115 84.4205 476.148 84.5518 476.216 84.6641C476.286 84.7763 476.382 84.8636 476.504 84.9261C476.626 84.9886 476.767 85.0199 476.926 85.0199Z" fill="black"/>
<path d="M481.553 86.6051V86.1705L483.47 83.1364H483.786V83.8097H483.572L482.124 86.1023V86.1364H484.706V86.6051H481.553ZM483.607 87.5V86.473V86.2706V83.1364H484.109V87.5H483.607ZM486.894 83.0767C487.073 83.0781 487.252 83.1122 487.431 83.179C487.61 83.2457 487.773 83.3565 487.921 83.5114C488.068 83.6648 488.187 83.8743 488.276 84.1399C488.366 84.4055 488.411 84.7386 488.411 85.1392C488.411 85.527 488.374 85.8714 488.3 86.1726C488.227 86.4723 488.122 86.7251 487.985 86.9311C487.848 87.1371 487.682 87.2933 487.486 87.3999C487.291 87.5064 487.071 87.5597 486.825 87.5597C486.581 87.5597 486.363 87.5114 486.171 87.4148C485.981 87.3168 485.825 87.1811 485.703 87.0078C485.582 86.8331 485.504 86.6307 485.47 86.4006H485.99C486.037 86.6009 486.13 86.7663 486.269 86.897C486.41 87.0263 486.595 87.0909 486.825 87.0909C487.162 87.0909 487.428 86.9439 487.622 86.6499C487.818 86.3558 487.916 85.9403 487.916 85.4034H487.882C487.803 85.5227 487.708 85.6257 487.599 85.7124C487.49 85.799 487.368 85.8658 487.235 85.9126C487.101 85.9595 486.959 85.983 486.808 85.983C486.558 85.983 486.329 85.9212 486.12 85.7976C485.913 85.6726 485.747 85.5014 485.622 85.2841C485.498 85.0653 485.436 84.8153 485.436 84.5341C485.436 84.267 485.496 84.0227 485.615 83.8011C485.736 83.5781 485.905 83.4006 486.122 83.2685C486.341 83.1364 486.598 83.0724 486.894 83.0767ZM486.894 83.5455C486.715 83.5455 486.553 83.5902 486.41 83.6797C486.268 83.7678 486.155 83.8871 486.071 84.0376C485.989 84.1868 485.948 84.3523 485.948 84.5341C485.948 84.7159 485.987 84.8814 486.067 85.0305C486.148 85.1783 486.258 85.2962 486.397 85.3842C486.538 85.4709 486.698 85.5142 486.877 85.5142C487.012 85.5142 487.137 85.4879 487.254 85.4354C487.37 85.3814 487.472 85.3082 487.558 85.2159C487.646 85.1222 487.715 85.0163 487.765 84.8984C487.815 84.7791 487.84 84.6548 487.84 84.5256C487.84 84.3551 487.798 84.1953 487.716 84.0462C487.635 83.897 487.523 83.7763 487.379 83.6839C487.237 83.5916 487.075 83.5455 486.894 83.5455Z" fill="black"/>
<path d="M503.596 87.5597C503.346 87.5597 503.12 87.5099 502.92 87.4105C502.72 87.3111 502.559 87.1747 502.439 87.0014C502.318 86.8281 502.252 86.6307 502.241 86.4091H502.752C502.772 86.6065 502.861 86.7699 503.02 86.8991C503.181 87.027 503.373 87.0909 503.596 87.0909C503.775 87.0909 503.934 87.049 504.073 86.9652C504.214 86.8814 504.324 86.7663 504.403 86.62C504.484 86.4723 504.525 86.3054 504.525 86.1193C504.525 85.929 504.483 85.7592 504.399 85.6101C504.316 85.4595 504.203 85.3409 504.058 85.2543C503.913 85.1676 503.748 85.1236 503.562 85.1222C503.428 85.1207 503.291 85.1413 503.15 85.1839C503.01 85.2251 502.894 85.2784 502.803 85.3438L502.309 85.2841L502.573 83.1364H504.84V83.6051H503.016L502.863 84.892H502.888C502.978 84.821 503.09 84.7621 503.225 84.7152C503.36 84.6683 503.5 84.6449 503.647 84.6449C503.914 84.6449 504.152 84.7088 504.361 84.8366C504.571 84.9631 504.736 85.1364 504.855 85.3565C504.976 85.5767 505.036 85.8281 505.036 86.1108C505.036 86.3892 504.973 86.6378 504.848 86.8565C504.725 87.0739 504.554 87.2457 504.337 87.3722C504.12 87.4972 503.873 87.5597 503.596 87.5597ZM507.416 83.1364V87.5H506.888V83.6903H506.862L505.797 84.3977V83.8608L506.888 83.1364H507.416Z" fill="black"/>
<path d="M513.174 87.5597C512.924 87.5597 512.699 87.5099 512.498 87.4105C512.298 87.3111 512.138 87.1747 512.017 87.0014C511.896 86.8281 511.83 86.6307 511.819 86.4091H512.33C512.35 86.6065 512.439 86.7699 512.598 86.8991C512.759 87.027 512.951 87.0909 513.174 87.0909C513.353 87.0909 513.512 87.049 513.651 86.9652C513.792 86.8814 513.902 86.7663 513.981 86.62C514.062 86.4723 514.103 86.3054 514.103 86.1193C514.103 85.929 514.061 85.7592 513.977 85.6101C513.895 85.4595 513.781 85.3409 513.636 85.2543C513.491 85.1676 513.326 85.1236 513.14 85.1222C513.006 85.1207 512.869 85.1413 512.728 85.1839C512.588 85.2251 512.472 85.2784 512.381 85.3438L511.887 85.2841L512.151 83.1364H514.418V83.6051H512.594L512.441 84.892H512.466C512.556 84.821 512.668 84.7621 512.803 84.7152C512.938 84.6683 513.079 84.6449 513.225 84.6449C513.492 84.6449 513.73 84.7088 513.939 84.8366C514.149 84.9631 514.314 85.1364 514.433 85.3565C514.554 85.5767 514.614 85.8281 514.614 86.1108C514.614 86.3892 514.552 86.6378 514.427 86.8565C514.303 87.0739 514.133 87.2457 513.915 87.3722C513.698 87.4972 513.451 87.5597 513.174 87.5597ZM515.46 87.5V87.1165L516.901 85.5398C517.07 85.3551 517.209 85.1946 517.318 85.0582C517.428 84.9205 517.509 84.7912 517.561 84.6705C517.615 84.5483 517.642 84.4205 517.642 84.2869C517.642 84.1335 517.605 84.0007 517.532 83.8885C517.459 83.7763 517.36 83.6896 517.233 83.6286C517.107 83.5675 516.965 83.5369 516.807 83.5369C516.639 83.5369 516.493 83.5717 516.368 83.6413C516.245 83.7095 516.149 83.8054 516.081 83.929C516.014 84.0526 515.98 84.1974 515.98 84.3636H515.478C515.478 84.108 515.536 83.8835 515.654 83.6903C515.772 83.4972 515.933 83.3466 516.136 83.2386C516.34 83.1307 516.57 83.0767 516.824 83.0767C517.08 83.0767 517.306 83.1307 517.504 83.2386C517.701 83.3466 517.856 83.4922 517.968 83.6754C518.081 83.8587 518.137 84.0625 518.137 84.2869C518.137 84.4474 518.108 84.6044 518.049 84.7578C517.992 84.9098 517.893 85.0795 517.751 85.267C517.61 85.4531 517.415 85.6804 517.165 85.9489L516.185 86.9972V87.0312H518.213V87.5H515.46Z" fill="black"/>
<path d="M533.065 87.5597C532.815 87.5597 532.59 87.5099 532.39 87.4105C532.19 87.3111 532.029 87.1747 531.908 87.0014C531.788 86.8281 531.722 86.6307 531.71 86.4091H532.222C532.241 86.6065 532.331 86.7699 532.49 86.8991C532.651 87.027 532.842 87.0909 533.065 87.0909C533.244 87.0909 533.403 87.049 533.543 86.9652C533.683 86.8814 533.793 86.7663 533.873 86.62C533.954 86.4723 533.994 86.3054 533.994 86.1193C533.994 85.929 533.952 85.7592 533.869 85.6101C533.786 85.4595 533.673 85.3409 533.528 85.2543C533.383 85.1676 533.217 85.1236 533.031 85.1222C532.898 85.1207 532.761 85.1413 532.62 85.1839C532.479 85.2251 532.364 85.2784 532.273 85.3438L531.778 85.2841L532.043 83.1364H534.31V83.6051H532.486L532.332 84.892H532.358C532.447 84.821 532.56 84.7621 532.695 84.7152C532.83 84.6683 532.97 84.6449 533.116 84.6449C533.384 84.6449 533.621 84.7088 533.83 84.8366C534.04 84.9631 534.205 85.1364 534.325 85.3565C534.445 85.5767 534.506 85.8281 534.506 86.1108C534.506 86.3892 534.443 86.6378 534.318 86.8565C534.195 87.0739 534.024 87.2457 533.807 87.3722C533.589 87.4972 533.342 87.5597 533.065 87.5597ZM535.25 86.6051V86.1705L537.167 83.1364H537.483V83.8097H537.27L535.821 86.1023V86.1364H538.403V86.6051H535.25ZM537.304 87.5V86.473V86.2706V83.1364H537.807V87.5H537.304Z" fill="black"/>
<path d="M211.819 87.5V87.1165L213.259 85.5398C213.428 85.3551 213.567 85.1946 213.677 85.0582C213.786 84.9205 213.867 84.7912 213.92 84.6705C213.974 84.5483 214.001 84.4205 214.001 84.2869C214.001 84.1335 213.964 84.0007 213.89 83.8885C213.817 83.7763 213.718 83.6896 213.592 83.6286C213.465 83.5675 213.323 83.5369 213.165 83.5369C212.998 83.5369 212.852 83.5717 212.727 83.6413C212.603 83.7095 212.507 83.8054 212.439 83.929C212.372 84.0526 212.339 84.1974 212.339 84.3636H211.836C211.836 84.108 211.895 83.8835 212.013 83.6903C212.131 83.4972 212.291 83.3466 212.494 83.2386C212.699 83.1307 212.928 83.0767 213.183 83.0767C213.438 83.0767 213.665 83.1307 213.862 83.2386C214.06 83.3466 214.214 83.4922 214.327 83.6754C214.439 83.8587 214.495 84.0625 214.495 84.2869C214.495 84.4474 214.466 84.6044 214.408 84.7578C214.351 84.9098 214.251 85.0795 214.109 85.267C213.969 85.4531 213.773 85.6804 213.523 85.9489L212.543 86.9972V87.0312H214.572V87.5H211.819ZM215.452 87.5V87.1165L216.892 85.5398C217.061 85.3551 217.2 85.1946 217.31 85.0582C217.419 84.9205 217.5 84.7912 217.553 84.6705C217.607 84.5483 217.634 84.4205 217.634 84.2869C217.634 84.1335 217.597 84.0007 217.523 83.8885C217.45 83.7763 217.351 83.6896 217.224 83.6286C217.098 83.5675 216.956 83.5369 216.798 83.5369C216.631 83.5369 216.484 83.5717 216.359 83.6413C216.236 83.7095 216.14 83.8054 216.072 83.929C216.005 84.0526 215.972 84.1974 215.972 84.3636H215.469C215.469 84.108 215.528 83.8835 215.646 83.6903C215.763 83.4972 215.924 83.3466 216.127 83.2386C216.332 83.1307 216.561 83.0767 216.815 83.0767C217.071 83.0767 217.298 83.1307 217.495 83.2386C217.692 83.3466 217.847 83.4922 217.96 83.6754C218.072 83.8587 218.128 84.0625 218.128 84.2869C218.128 84.4474 218.099 84.6044 218.04 84.7578C217.984 84.9098 217.884 85.0795 217.742 85.267C217.602 85.4531 217.406 85.6804 217.156 85.9489L216.176 86.9972V87.0312H218.205V87.5H215.452Z" fill="black"/>
<path d="M25.016 87.5597C24.7347 87.5597 24.484 87.5114 24.2638 87.4148C24.0451 87.3182 23.8711 87.1839 23.7418 87.0121C23.614 86.8388 23.5444 86.6378 23.533 86.4091H24.07C24.0813 86.5497 24.1296 86.6712 24.2148 86.7734C24.3001 86.8743 24.4116 86.9524 24.5494 87.0078C24.6871 87.0632 24.8398 87.0909 25.0075 87.0909C25.195 87.0909 25.3612 87.0582 25.506 86.9929C25.6509 86.9276 25.7646 86.8366 25.8469 86.7202C25.9293 86.6037 25.9705 86.4688 25.9705 86.3153C25.9705 86.1548 25.9308 86.0135 25.8512 85.8913C25.7717 85.7678 25.6552 85.6712 25.5018 85.6016C25.3484 85.532 25.1609 85.4972 24.9393 85.4972H24.5898V85.0284H24.9393C25.1126 85.0284 25.2646 84.9972 25.3952 84.9347C25.5273 84.8722 25.6303 84.7841 25.7042 84.6705C25.7795 84.5568 25.8171 84.4233 25.8171 84.2699C25.8171 84.1222 25.7844 83.9936 25.7191 83.8842C25.6538 83.7749 25.5614 83.6896 25.4421 83.6286C25.3242 83.5675 25.185 83.5369 25.0245 83.5369C24.8739 83.5369 24.7319 83.5646 24.5984 83.62C24.4663 83.674 24.3583 83.7528 24.2745 83.8565C24.1907 83.9588 24.1452 84.0824 24.1381 84.2273H23.6268C23.6353 83.9986 23.7042 83.7983 23.8335 83.6264C23.9627 83.4531 24.1317 83.3182 24.3406 83.2216C24.5508 83.125 24.7816 83.0767 25.033 83.0767C25.3029 83.0767 25.5344 83.1314 25.7276 83.2408C25.9208 83.3487 26.0692 83.4915 26.1729 83.669C26.2766 83.8466 26.3285 84.0384 26.3285 84.2443C26.3285 84.4901 26.2638 84.6996 26.1346 84.8729C26.0067 85.0462 25.8327 85.1662 25.6126 85.233V85.267C25.8881 85.3125 26.1033 85.4297 26.2582 85.6186C26.413 85.8061 26.4904 86.0384 26.4904 86.3153C26.4904 86.5526 26.4258 86.7656 26.2965 86.9545C26.1687 87.142 25.994 87.2898 25.7724 87.3977C25.5508 87.5057 25.2987 87.5597 25.016 87.5597Z" fill="black"/>
<path d="M75.0008 7.55966C74.7082 7.55966 74.4497 7.50781 74.2252 7.40412C74.0022 7.29901 73.8282 7.15483 73.7032 6.97159C73.5782 6.78693 73.5164 6.5767 73.5178 6.34091C73.5164 6.15625 73.5526 5.9858 73.6265 5.82955C73.7004 5.67187 73.8012 5.54048 73.9291 5.43537C74.0583 5.32884 74.2025 5.26136 74.3616 5.23295V5.20739C74.1528 5.15341 73.9866 5.03622 73.863 4.85582C73.7394 4.67401 73.6784 4.46733 73.6798 4.2358C73.6784 4.0142 73.7345 3.81605 73.8481 3.64134C73.9617 3.46662 74.118 3.32884 74.3169 3.22798C74.5171 3.12713 74.7451 3.0767 75.0008 3.0767C75.2536 3.0767 75.4795 3.12713 75.6784 3.22798C75.8772 3.32884 76.0335 3.46662 76.1471 3.64134C76.2622 3.81605 76.3204 4.0142 76.3218 4.2358C76.3204 4.46733 76.2572 4.67401 76.1322 4.85582C76.0086 5.03622 75.8445 5.15341 75.64 5.20739V5.23295C75.7977 5.26136 75.9397 5.32884 76.0661 5.43537C76.1926 5.54048 76.2934 5.67187 76.3687 5.82955C76.444 5.9858 76.4823 6.15625 76.4838 6.34091C76.4823 6.5767 76.4184 6.78693 76.292 6.97159C76.167 7.15483 75.993 7.29901 75.77 7.40412C75.5484 7.50781 75.292 7.55966 75.0008 7.55966ZM75.0008 7.09091C75.1982 7.09091 75.3687 7.05895 75.5122 6.99503C75.6556 6.93111 75.7664 6.84091 75.8445 6.72443C75.9227 6.60795 75.9624 6.47159 75.9639 6.31534C75.9624 6.15057 75.9198 6.00497 75.836 5.87855C75.7522 5.75213 75.6379 5.6527 75.493 5.58026C75.3495 5.50781 75.1855 5.47159 75.0008 5.47159C74.8147 5.47159 74.6485 5.50781 74.5022 5.58026C74.3573 5.6527 74.243 5.75213 74.1592 5.87855C74.0768 6.00497 74.0363 6.15057 74.0377 6.31534C74.0363 6.47159 74.074 6.60795 74.1507 6.72443C74.2288 6.84091 74.3403 6.93111 74.4852 6.99503C74.6301 7.05895 74.8019 7.09091 75.0008 7.09091ZM75.0008 5.01989C75.157 5.01989 75.2955 4.98864 75.4163 4.92614C75.5384 4.86364 75.6343 4.77628 75.7039 4.66406C75.7735 4.55185 75.809 4.42045 75.8105 4.26989C75.809 4.12216 75.7742 3.99361 75.7061 3.88423C75.6379 3.77344 75.5434 3.68821 75.4227 3.62855C75.3019 3.56747 75.1613 3.53693 75.0008 3.53693C74.8374 3.53693 74.6947 3.56747 74.5725 3.62855C74.4504 3.68821 74.3559 3.77344 74.2892 3.88423C74.2224 3.99361 74.1897 4.12216 74.1911 4.26989C74.1897 4.42045 74.2231 4.55185 74.2913 4.66406C74.3609 4.77628 74.4568 4.86364 74.5789 4.92614C74.7011 4.98864 74.8417 5.01989 75.0008 5.01989Z" fill="black"/>
<path d="M84.9688 3.0767C85.1478 3.07812 85.3268 3.11222 85.5058 3.17898C85.6847 3.24574 85.8481 3.35653 85.9958 3.51136C86.1436 3.66477 86.2622 3.87429 86.3517 4.13991C86.4411 4.40554 86.4859 4.73864 86.4859 5.1392C86.4859 5.52699 86.449 5.87145 86.3751 6.17259C86.3026 6.4723 86.1975 6.72514 86.0597 6.93111C85.9234 7.13707 85.7572 7.29332 85.5612 7.39986C85.3666 7.50639 85.1464 7.55966 84.9007 7.55966C84.6563 7.55966 84.4383 7.51136 84.2465 7.41477C84.0562 7.31676 83.8999 7.18111 83.7778 7.00781C83.657 6.8331 83.5796 6.63068 83.5455 6.40057H84.0654C84.1123 6.60085 84.2053 6.76634 84.3445 6.89702C84.4852 7.02628 84.6705 7.09091 84.9007 7.09091C85.2373 7.09091 85.5029 6.94389 85.6975 6.64986C85.8936 6.35582 85.9916 5.94034 85.9916 5.40341H85.9575C85.8779 5.52273 85.7835 5.62571 85.6741 5.71236C85.5647 5.79901 85.4433 5.86577 85.3097 5.91264C85.1762 5.95952 85.0342 5.98295 84.8836 5.98295C84.6336 5.98295 84.4042 5.92116 84.1954 5.79759C83.988 5.67259 83.8218 5.50142 83.6968 5.28409C83.5732 5.06534 83.5115 4.81534 83.5115 4.53409C83.5115 4.26705 83.5711 4.02273 83.6904 3.80114C83.8112 3.57812 83.9802 3.40057 84.1975 3.26847C84.4163 3.13636 84.6734 3.07244 84.9688 3.0767ZM84.9688 3.54545C84.7899 3.54545 84.6286 3.5902 84.4852 3.67969C84.3431 3.76776 84.2302 3.88707 84.1464 4.03764C84.064 4.18679 84.0228 4.35227 84.0228 4.53409C84.0228 4.71591 84.0626 4.88139 84.1421 5.03054C84.2231 5.17827 84.3332 5.29616 84.4724 5.38423C84.613 5.47088 84.7728 5.5142 84.9518 5.5142C85.0867 5.5142 85.2124 5.48793 85.3289 5.43537C85.4454 5.38139 85.547 5.30824 85.6336 5.21591C85.7217 5.12216 85.7906 5.01634 85.8403 4.89844C85.89 4.77912 85.9149 4.65483 85.9149 4.52557C85.9149 4.35511 85.8737 4.19531 85.7913 4.04616C85.7103 3.89702 85.5981 3.77628 85.4546 3.68395C85.3126 3.59162 85.1507 3.54545 84.9688 3.54545Z" fill="black"/>
<path d="M163.877 3.13636V7.5H163.349V3.69034H163.323L162.258 4.39773V3.8608L163.349 3.13636H163.877ZM165.269 7.5L167.22 3.6392V3.60511H164.97V3.13636H167.766V3.63068L165.823 7.5H165.269Z" fill="black"/>
<path d="M241.81 7.5V7.11648L243.25 5.53977C243.419 5.35511 243.559 5.1946 243.668 5.05824C243.777 4.92045 243.858 4.79119 243.911 4.67045C243.965 4.5483 243.992 4.42045 243.992 4.28693C243.992 4.13352 243.955 4.00071 243.881 3.88849C243.809 3.77628 243.709 3.68963 243.583 3.62855C243.456 3.56747 243.314 3.53693 243.157 3.53693C242.989 3.53693 242.843 3.57173 242.718 3.64134C242.594 3.70952 242.498 3.8054 242.43 3.92898C242.363 4.05256 242.33 4.19744 242.33 4.36364H241.827C241.827 4.10795 241.886 3.88352 242.004 3.69034C242.122 3.49716 242.282 3.34659 242.486 3.23864C242.69 3.13068 242.919 3.0767 243.174 3.0767C243.429 3.0767 243.656 3.13068 243.853 3.23864C244.051 3.34659 244.206 3.49219 244.318 3.67543C244.43 3.85866 244.486 4.0625 244.486 4.28693C244.486 4.44744 244.457 4.6044 244.399 4.75781C244.342 4.9098 244.243 5.07955 244.101 5.26705C243.96 5.45312 243.765 5.6804 243.515 5.94886L242.535 6.99716V7.03125H244.563V7.5H241.81ZM246.807 7.55966C246.557 7.55966 246.331 7.50994 246.131 7.41051C245.931 7.31108 245.77 7.17472 245.65 7.00142C245.529 6.82812 245.463 6.63068 245.451 6.40909H245.963C245.983 6.60653 246.072 6.76989 246.231 6.89915C246.392 7.02699 246.584 7.09091 246.807 7.09091C246.986 7.09091 247.145 7.04901 247.284 6.9652C247.424 6.88139 247.535 6.76634 247.614 6.62003C247.695 6.4723 247.736 6.3054 247.736 6.11932C247.736 5.92898 247.694 5.75923 247.61 5.61009C247.527 5.45952 247.414 5.34091 247.269 5.25426C247.124 5.16761 246.959 5.12358 246.772 5.12216C246.639 5.12074 246.502 5.14134 246.361 5.18395C246.221 5.22514 246.105 5.27841 246.014 5.34375L245.52 5.28409L245.784 3.13636H248.051V3.60511H246.227L246.074 4.89205H246.099C246.189 4.82102 246.301 4.76207 246.436 4.7152C246.571 4.66832 246.711 4.64489 246.858 4.64489C247.125 4.64489 247.363 4.70881 247.571 4.83665C247.782 4.96307 247.946 5.13636 248.066 5.35653C248.187 5.5767 248.247 5.82812 248.247 6.1108C248.247 6.3892 248.184 6.63778 248.059 6.85653C247.936 7.07386 247.765 7.24574 247.548 7.37216C247.331 7.49716 247.084 7.55966 246.807 7.55966Z" fill="black"/>
<path d="M323.106 7.55966C322.825 7.55966 322.574 7.51136 322.354 7.41477C322.135 7.31818 321.961 7.18395 321.832 7.01207C321.704 6.83878 321.634 6.63778 321.623 6.40909H322.16C322.171 6.54972 322.219 6.67116 322.305 6.77344C322.39 6.87429 322.501 6.95241 322.639 7.00781C322.777 7.06321 322.93 7.09091 323.097 7.09091C323.285 7.09091 323.451 7.05824 323.596 6.9929C323.741 6.92756 323.854 6.83665 323.937 6.72017C324.019 6.60369 324.06 6.46875 324.06 6.31534C324.06 6.15483 324.021 6.01349 323.941 5.89134C323.862 5.76776 323.745 5.67116 323.592 5.60156C323.438 5.53196 323.251 5.49716 323.029 5.49716H322.68V5.02841H323.029C323.202 5.02841 323.354 4.99716 323.485 4.93466C323.617 4.87216 323.72 4.78409 323.794 4.67045C323.869 4.55682 323.907 4.4233 323.907 4.26989C323.907 4.12216 323.874 3.99361 323.809 3.88423C323.744 3.77486 323.651 3.68963 323.532 3.62855C323.414 3.56747 323.275 3.53693 323.114 3.53693C322.964 3.53693 322.822 3.56463 322.688 3.62003C322.556 3.67401 322.448 3.75284 322.364 3.85653C322.281 3.95881 322.235 4.08239 322.228 4.22727H321.717C321.725 3.99858 321.794 3.7983 321.923 3.62642C322.053 3.45312 322.222 3.31818 322.43 3.22159C322.641 3.125 322.871 3.0767 323.123 3.0767C323.393 3.0767 323.624 3.13139 323.817 3.24077C324.011 3.34872 324.159 3.49148 324.263 3.66903C324.366 3.84659 324.418 4.03835 324.418 4.24432C324.418 4.49006 324.354 4.69957 324.224 4.87287C324.097 5.04616 323.923 5.16619 323.702 5.23295V5.26705C323.978 5.3125 324.193 5.42969 324.348 5.61861C324.503 5.80611 324.58 6.03835 324.58 6.31534C324.58 6.55256 324.516 6.76562 324.386 6.95455C324.259 7.14205 324.084 7.28977 323.862 7.39773C323.641 7.50568 323.388 7.55966 323.106 7.55966ZM326.926 7.55966C326.645 7.55966 326.394 7.51136 326.174 7.41477C325.955 7.31818 325.781 7.18395 325.652 7.01207C325.524 6.83878 325.455 6.63778 325.443 6.40909H325.98C325.991 6.54972 326.04 6.67116 326.125 6.77344C326.21 6.87429 326.322 6.95241 326.46 7.00781C326.597 7.06321 326.75 7.09091 326.918 7.09091C327.105 7.09091 327.271 7.05824 327.416 6.9929C327.561 6.92756 327.675 6.83665 327.757 6.72017C327.839 6.60369 327.881 6.46875 327.881 6.31534C327.881 6.15483 327.841 6.01349 327.761 5.89134C327.682 5.76776 327.565 5.67116 327.412 5.60156C327.259 5.53196 327.071 5.49716 326.849 5.49716H326.5V5.02841H326.849C327.023 5.02841 327.175 4.99716 327.305 4.93466C327.438 4.87216 327.54 4.78409 327.614 4.67045C327.69 4.55682 327.727 4.4233 327.727 4.26989C327.727 4.12216 327.695 3.99361 327.629 3.88423C327.564 3.77486 327.472 3.68963 327.352 3.62855C327.234 3.56747 327.095 3.53693 326.935 3.53693C326.784 3.53693 326.642 3.56463 326.509 3.62003C326.376 3.67401 326.268 3.75284 326.185 3.85653C326.101 3.95881 326.055 4.08239 326.048 4.22727H325.537C325.545 3.99858 325.614 3.7983 325.744 3.62642C325.873 3.45312 326.042 3.31818 326.251 3.22159C326.461 3.125 326.692 3.0767 326.943 3.0767C327.213 3.0767 327.445 3.13139 327.638 3.24077C327.831 3.34872 327.979 3.49148 328.083 3.66903C328.187 3.84659 328.239 4.03835 328.239 4.24432C328.239 4.49006 328.174 4.69957 328.045 4.87287C327.917 5.04616 327.743 5.16619 327.523 5.23295V5.26705C327.798 5.3125 328.013 5.42969 328.168 5.61861C328.323 5.80611 328.401 6.03835 328.401 6.31534C328.401 6.55256 328.336 6.76562 328.207 6.95455C328.079 7.14205 327.904 7.28977 327.683 7.39773C327.461 7.50568 327.209 7.55966 326.926 7.55966Z" fill="black"/>
<path d="M402.059 6.60511V6.17045L403.977 3.13636H404.292V3.80966H404.079L402.63 6.10227V6.13636H405.213V6.60511H402.059ZM404.113 7.5V6.47301V6.2706V3.13636H404.616V7.5H404.113ZM407.487 3.13636V7.5H406.958V3.69034H406.933L405.867 4.39773V3.8608L406.958 3.13636H407.487Z" fill="black"/>
<path d="M481.553 6.60511V6.17045L483.47 3.13636H483.786V3.80966H483.572L482.124 6.10227V6.13636H484.706V6.60511H481.553ZM483.607 7.5V6.47301V6.2706V3.13636H484.109V7.5H483.607ZM486.894 3.0767C487.073 3.07812 487.252 3.11222 487.431 3.17898C487.61 3.24574 487.773 3.35653 487.921 3.51136C488.068 3.66477 488.187 3.87429 488.276 4.13991C488.366 4.40554 488.411 4.73864 488.411 5.1392C488.411 5.52699 488.374 5.87145 488.3 6.17259C488.227 6.4723 488.122 6.72514 487.985 6.93111C487.848 7.13707 487.682 7.29332 487.486 7.39986C487.291 7.50639 487.071 7.55966 486.825 7.55966C486.581 7.55966 486.363 7.51136 486.171 7.41477C485.981 7.31676 485.825 7.18111 485.703 7.00781C485.582 6.8331 485.504 6.63068 485.47 6.40057H485.99C486.037 6.60085 486.13 6.76634 486.269 6.89702C486.41 7.02628 486.595 7.09091 486.825 7.09091C487.162 7.09091 487.428 6.94389 487.622 6.64986C487.818 6.35582 487.916 5.94034 487.916 5.40341H487.882C487.803 5.52273 487.708 5.62571 487.599 5.71236C487.49 5.79901 487.368 5.86577 487.235 5.91264C487.101 5.95952 486.959 5.98295 486.808 5.98295C486.558 5.98295 486.329 5.92116 486.12 5.79759C485.913 5.67259 485.747 5.50142 485.622 5.28409C485.498 5.06534 485.436 4.81534 485.436 4.53409C485.436 4.26705 485.496 4.02273 485.615 3.80114C485.736 3.57812 485.905 3.40057 486.122 3.26847C486.341 3.13636 486.598 3.07244 486.894 3.0767ZM486.894 3.54545C486.715 3.54545 486.553 3.5902 486.41 3.67969C486.268 3.76776 486.155 3.88707 486.071 4.03764C485.989 4.18679 485.948 4.35227 485.948 4.53409C485.948 4.71591 485.987 4.88139 486.067 5.03054C486.148 5.17827 486.258 5.29616 486.397 5.38423C486.538 5.47088 486.698 5.5142 486.877 5.5142C487.012 5.5142 487.137 5.48793 487.254 5.43537C487.37 5.38139 487.472 5.30824 487.558 5.21591C487.646 5.12216 487.715 5.01634 487.765 4.89844C487.815 4.77912 487.84 4.65483 487.84 4.52557C487.84 4.35511 487.798 4.19531 487.716 4.04616C487.635 3.89702 487.523 3.77628 487.379 3.68395C487.237 3.59162 487.075 3.54545 486.894 3.54545Z" fill="black"/>
<path d="M513.174 7.55966C512.924 7.55966 512.699 7.50994 512.498 7.41051C512.298 7.31108 512.138 7.17472 512.017 7.00142C511.896 6.82812 511.83 6.63068 511.819 6.40909H512.33C512.35 6.60653 512.439 6.76989 512.598 6.89915C512.759 7.02699 512.951 7.09091 513.174 7.09091C513.353 7.09091 513.512 7.04901 513.651 6.9652C513.792 6.88139 513.902 6.76634 513.981 6.62003C514.062 6.4723 514.103 6.3054 514.103 6.11932C514.103 5.92898 514.061 5.75923 513.977 5.61009C513.895 5.45952 513.781 5.34091 513.636 5.25426C513.491 5.16761 513.326 5.12358 513.14 5.12216C513.006 5.12074 512.869 5.14134 512.728 5.18395C512.588 5.22514 512.472 5.27841 512.381 5.34375L511.887 5.28409L512.151 3.13636H514.418V3.60511H512.594L512.441 4.89205H512.466C512.556 4.82102 512.668 4.76207 512.803 4.7152C512.938 4.66832 513.079 4.64489 513.225 4.64489C513.492 4.64489 513.73 4.70881 513.939 4.83665C514.149 4.96307 514.314 5.13636 514.433 5.35653C514.554 5.5767 514.614 5.82812 514.614 6.1108C514.614 6.3892 514.552 6.63778 514.427 6.85653C514.303 7.07386 514.133 7.24574 513.915 7.37216C513.698 7.49716 513.451 7.55966 513.174 7.55966ZM515.46 7.5V7.11648L516.901 5.53977C517.07 5.35511 517.209 5.1946 517.318 5.05824C517.428 4.92045 517.509 4.79119 517.561 4.67045C517.615 4.5483 517.642 4.42045 517.642 4.28693C517.642 4.13352 517.605 4.00071 517.532 3.88849C517.459 3.77628 517.36 3.68963 517.233 3.62855C517.107 3.56747 516.965 3.53693 516.807 3.53693C516.639 3.53693 516.493 3.57173 516.368 3.64134C516.245 3.70952 516.149 3.8054 516.081 3.92898C516.014 4.05256 515.98 4.19744 515.98 4.36364H515.478C515.478 4.10795 515.536 3.88352 515.654 3.69034C515.772 3.49716 515.933 3.34659 516.136 3.23864C516.34 3.13068 516.57 3.0767 516.824 3.0767C517.08 3.0767 517.306 3.13068 517.504 3.23864C517.701 3.34659 517.856 3.49219 517.968 3.67543C518.081 3.85866 518.137 4.0625 518.137 4.28693C518.137 4.44744 518.108 4.6044 518.049 4.75781C517.992 4.9098 517.893 5.07955 517.751 5.26705C517.61 5.45312 517.415 5.6804 517.165 5.94886L516.185 6.99716V7.03125H518.213V7.5H515.46Z" fill="black"/>
<path d="M503.596 7.55966C503.346 7.55966 503.12 7.50994 502.92 7.41051C502.72 7.31108 502.559 7.17472 502.439 7.00142C502.318 6.82812 502.252 6.63068 502.241 6.40909H502.752C502.772 6.60653 502.861 6.76989 503.02 6.89915C503.181 7.02699 503.373 7.09091 503.596 7.09091C503.775 7.09091 503.934 7.04901 504.073 6.9652C504.214 6.88139 504.324 6.76634 504.403 6.62003C504.484 6.4723 504.525 6.3054 504.525 6.11932C504.525 5.92898 504.483 5.75923 504.399 5.61009C504.316 5.45952 504.203 5.34091 504.058 5.25426C503.913 5.16761 503.748 5.12358 503.562 5.12216C503.428 5.12074 503.291 5.14134 503.15 5.18395C503.01 5.22514 502.894 5.27841 502.803 5.34375L502.309 5.28409L502.573 3.13636H504.84V3.60511H503.016L502.863 4.89205H502.888C502.978 4.82102 503.09 4.76207 503.225 4.7152C503.36 4.66832 503.5 4.64489 503.647 4.64489C503.914 4.64489 504.152 4.70881 504.361 4.83665C504.571 4.96307 504.736 5.13636 504.855 5.35653C504.976 5.5767 505.036 5.82812 505.036 6.1108C505.036 6.3892 504.973 6.63778 504.848 6.85653C504.725 7.07386 504.554 7.24574 504.337 7.37216C504.12 7.49716 503.873 7.55966 503.596 7.55966ZM507.416 3.13636V7.5H506.888V3.69034H506.862L505.797 4.39773V3.8608L506.888 3.13636H507.416Z" fill="black"/>
<path d="M533.065 7.55966C532.815 7.55966 532.59 7.50994 532.39 7.41051C532.19 7.31108 532.029 7.17472 531.908 7.00142C531.788 6.82812 531.722 6.63068 531.71 6.40909H532.222C532.241 6.60653 532.331 6.76989 532.49 6.89915C532.651 7.02699 532.842 7.09091 533.065 7.09091C533.244 7.09091 533.403 7.04901 533.543 6.9652C533.683 6.88139 533.793 6.76634 533.873 6.62003C533.954 6.4723 533.994 6.3054 533.994 6.11932C533.994 5.92898 533.952 5.75923 533.869 5.61009C533.786 5.45952 533.673 5.34091 533.528 5.25426C533.383 5.16761 533.217 5.12358 533.031 5.12216C532.898 5.12074 532.761 5.14134 532.62 5.18395C532.479 5.22514 532.364 5.27841 532.273 5.34375L531.778 5.28409L532.043 3.13636H534.31V3.60511H532.486L532.332 4.89205H532.358C532.447 4.82102 532.56 4.76207 532.695 4.7152C532.83 4.66832 532.97 4.64489 533.116 4.64489C533.384 4.64489 533.621 4.70881 533.83 4.83665C534.04 4.96307 534.205 5.13636 534.325 5.35653C534.445 5.5767 534.506 5.82812 534.506 6.1108C534.506 6.3892 534.443 6.63778 534.318 6.85653C534.195 7.07386 534.024 7.24574 533.807 7.37216C533.589 7.49716 533.342 7.55966 533.065 7.55966ZM535.25 6.60511V6.17045L537.167 3.13636H537.483V3.80966H537.27L535.821 6.10227V6.13636H538.403V6.60511H535.25ZM537.304 7.5V6.47301V6.2706V3.13636H537.807V7.5H537.304Z" fill="black"/>
<path d="M153.719 3.13636V7.5H153.191V3.69034H153.165L152.1 4.39773V3.8608L153.191 3.13636H153.719ZM156.423 7.55966C156.244 7.55682 156.065 7.52273 155.886 7.45739C155.707 7.39205 155.544 7.28196 155.396 7.12713C155.248 6.97088 155.13 6.75994 155.04 6.49432C154.951 6.22727 154.906 5.89205 154.906 5.48864C154.906 5.10227 154.942 4.75994 155.015 4.46165C155.087 4.16193 155.192 3.9098 155.33 3.70526C155.468 3.49929 155.634 3.34304 155.829 3.23651C156.025 3.12997 156.245 3.0767 156.491 3.0767C156.736 3.0767 156.953 3.12571 157.143 3.22372C157.335 3.32031 157.491 3.45526 157.612 3.62855C157.733 3.80185 157.811 4.00142 157.846 4.22727H157.326C157.278 4.03125 157.184 3.86861 157.045 3.73935C156.906 3.61009 156.721 3.54545 156.491 3.54545C156.153 3.54545 155.887 3.69247 155.692 3.98651C155.499 4.28054 155.402 4.69318 155.4 5.22443H155.434C155.514 5.10369 155.608 5.00071 155.718 4.91548C155.829 4.82884 155.951 4.76207 156.084 4.7152C156.218 4.66832 156.359 4.64489 156.508 4.64489C156.758 4.64489 156.987 4.70739 157.194 4.83239C157.402 4.95597 157.568 5.12713 157.693 5.34588C157.818 5.56321 157.88 5.8125 157.88 6.09375C157.88 6.36364 157.82 6.6108 157.699 6.83523C157.579 7.05824 157.409 7.2358 157.19 7.3679C156.973 7.49858 156.717 7.5625 156.423 7.55966ZM156.423 7.09091C156.602 7.09091 156.763 7.04616 156.905 6.95668C157.048 6.86719 157.161 6.74716 157.243 6.59659C157.327 6.44602 157.369 6.27841 157.369 6.09375C157.369 5.91335 157.329 5.74929 157.248 5.60156C157.168 5.45241 157.058 5.33381 156.917 5.24574C156.778 5.15767 156.619 5.11364 156.44 5.11364C156.305 5.11364 156.179 5.14062 156.063 5.1946C155.946 5.24716 155.844 5.3196 155.756 5.41193C155.669 5.50426 155.601 5.61009 155.552 5.7294C155.502 5.8473 155.477 5.97159 155.477 6.10227C155.477 6.27557 155.517 6.4375 155.598 6.58807C155.681 6.73864 155.793 6.86009 155.935 6.95241C156.079 7.04474 156.241 7.09091 156.423 7.09091Z" fill="black"/>
<path d="M231.757 7.5V7.11648L233.198 5.53977C233.367 5.35511 233.506 5.1946 233.615 5.05824C233.725 4.92045 233.806 4.79119 233.858 4.67045C233.912 4.5483 233.939 4.42045 233.939 4.28693C233.939 4.13352 233.902 4.00071 233.828 3.88849C233.756 3.77628 233.657 3.68963 233.53 3.62855C233.404 3.56747 233.262 3.53693 233.104 3.53693C232.936 3.53693 232.79 3.57173 232.665 3.64134C232.541 3.70952 232.446 3.8054 232.377 3.92898C232.311 4.05256 232.277 4.19744 232.277 4.36364H231.774C231.774 4.10795 231.833 3.88352 231.951 3.69034C232.069 3.49716 232.23 3.34659 232.433 3.23864C232.637 3.13068 232.867 3.0767 233.121 3.0767C233.377 3.0767 233.603 3.13068 233.801 3.23864C233.998 3.34659 234.153 3.49219 234.265 3.67543C234.377 3.85866 234.434 4.0625 234.434 4.28693C234.434 4.44744 234.404 4.6044 234.346 4.75781C234.289 4.9098 234.19 5.07955 234.048 5.26705C233.907 5.45312 233.712 5.6804 233.462 5.94886L232.482 6.99716V7.03125H234.51V7.5H231.757ZM235.194 6.60511V6.17045L237.112 3.13636H237.427V3.80966H237.214L235.765 6.10227V6.13636H238.348V6.60511H235.194ZM237.248 7.5V6.47301V6.2706V3.13636H237.751V7.5H237.248Z" fill="black"/>
<path d="M313.2 7.55966C312.918 7.55966 312.668 7.51136 312.447 7.41477C312.229 7.31818 312.055 7.18395 311.925 7.01207C311.798 6.83878 311.728 6.63778 311.717 6.40909H312.254C312.265 6.54972 312.313 6.67116 312.398 6.77344C312.484 6.87429 312.595 6.95241 312.733 7.00781C312.871 7.06321 313.023 7.09091 313.191 7.09091C313.379 7.09091 313.545 7.05824 313.69 6.9929C313.835 6.92756 313.948 6.83665 314.031 6.72017C314.113 6.60369 314.154 6.46875 314.154 6.31534C314.154 6.15483 314.114 6.01349 314.035 5.89134C313.955 5.76776 313.839 5.67116 313.685 5.60156C313.532 5.53196 313.344 5.49716 313.123 5.49716H312.773V5.02841H313.123C313.296 5.02841 313.448 4.99716 313.579 4.93466C313.711 4.87216 313.814 4.78409 313.888 4.67045C313.963 4.55682 314.001 4.4233 314.001 4.26989C314.001 4.12216 313.968 3.99361 313.903 3.88423C313.837 3.77486 313.745 3.68963 313.626 3.62855C313.508 3.56747 313.369 3.53693 313.208 3.53693C313.058 3.53693 312.915 3.56463 312.782 3.62003C312.65 3.67401 312.542 3.75284 312.458 3.85653C312.374 3.95881 312.329 4.08239 312.322 4.22727H311.81C311.819 3.99858 311.888 3.7983 312.017 3.62642C312.146 3.45312 312.315 3.31818 312.524 3.22159C312.734 3.125 312.965 3.0767 313.217 3.0767C313.487 3.0767 313.718 3.13139 313.911 3.24077C314.104 3.34872 314.253 3.49148 314.357 3.66903C314.46 3.84659 314.512 4.03835 314.512 4.24432C314.512 4.49006 314.447 4.69957 314.318 4.87287C314.19 5.04616 314.016 5.16619 313.796 5.23295V5.26705C314.072 5.3125 314.287 5.42969 314.442 5.61861C314.597 5.80611 314.674 6.03835 314.674 6.31534C314.674 6.55256 314.609 6.76562 314.48 6.95455C314.352 7.14205 314.178 7.28977 313.956 7.39773C313.734 7.50568 313.482 7.55966 313.2 7.55966ZM315.545 7.5V7.11648L316.986 5.53977C317.155 5.35511 317.294 5.1946 317.403 5.05824C317.513 4.92045 317.594 4.79119 317.646 4.67045C317.7 4.5483 317.727 4.42045 317.727 4.28693C317.727 4.13352 317.69 4.00071 317.616 3.88849C317.544 3.77628 317.445 3.68963 317.318 3.62855C317.192 3.56747 317.05 3.53693 316.892 3.53693C316.724 3.53693 316.578 3.57173 316.453 3.64134C316.33 3.70952 316.234 3.8054 316.165 3.92898C316.099 4.05256 316.065 4.19744 316.065 4.36364H315.562C315.562 4.10795 315.621 3.88352 315.739 3.69034C315.857 3.49716 316.018 3.34659 316.221 3.23864C316.425 3.13068 316.655 3.0767 316.909 3.0767C317.165 3.0767 317.391 3.13068 317.589 3.23864C317.786 3.34659 317.941 3.49219 318.053 3.67543C318.165 3.85866 318.222 4.0625 318.222 4.28693C318.222 4.44744 318.192 4.6044 318.134 4.75781C318.077 4.9098 317.978 5.07955 317.836 5.26705C317.695 5.45312 317.5 5.6804 317.25 5.94886L316.27 6.99716V7.03125H318.298V7.5H315.545Z" fill="black"/>
<path d="M391.55 6.60511V6.17045L393.467 3.13636H393.783V3.80966H393.57L392.121 6.10227V6.13636H394.703V6.60511H391.55ZM393.604 7.5V6.47301V6.2706V3.13636H394.106V7.5H393.604ZM396.925 7.55966C396.604 7.55966 396.33 7.4723 396.104 7.29759C395.879 7.12145 395.706 6.86648 395.587 6.53267C395.467 6.19744 395.408 5.79261 395.408 5.31818C395.408 4.84659 395.467 4.44389 395.587 4.11009C395.707 3.77486 395.881 3.51918 396.107 3.34304C396.334 3.16548 396.607 3.0767 396.925 3.0767C397.243 3.0767 397.515 3.16548 397.741 3.34304C397.968 3.51918 398.141 3.77486 398.261 4.11009C398.381 4.44389 398.442 4.84659 398.442 5.31818C398.442 5.79261 398.382 6.19744 398.263 6.53267C398.144 6.86648 397.971 7.12145 397.745 7.29759C397.519 7.4723 397.246 7.55966 396.925 7.55966ZM396.925 7.09091C397.243 7.09091 397.49 6.9375 397.666 6.63068C397.842 6.32386 397.93 5.88636 397.93 5.31818C397.93 4.94034 397.89 4.61861 397.809 4.35298C397.729 4.08736 397.614 3.88494 397.464 3.74574C397.315 3.60653 397.135 3.53693 396.925 3.53693C396.609 3.53693 396.363 3.69247 396.185 4.00355C396.008 4.31321 395.919 4.75142 395.919 5.31818C395.919 5.69602 395.959 6.01705 396.038 6.28125C396.118 6.54545 396.232 6.74645 396.381 6.88423C396.532 7.02202 396.713 7.09091 396.925 7.09091Z" fill="black"/>
<path d="M471.576 6.60511V6.17045L473.494 3.13636H473.809V3.80966H473.596L472.147 6.10227V6.13636H474.729V6.60511H471.576ZM473.63 7.5V6.47301V6.2706V3.13636H474.133V7.5H473.63ZM476.926 7.55966C476.633 7.55966 476.374 7.50781 476.15 7.40412C475.927 7.29901 475.753 7.15483 475.628 6.97159C475.503 6.78693 475.441 6.5767 475.443 6.34091C475.441 6.15625 475.477 5.9858 475.551 5.82955C475.625 5.67187 475.726 5.54048 475.854 5.43537C475.983 5.32884 476.127 5.26136 476.286 5.23295V5.20739C476.078 5.15341 475.911 5.03622 475.788 4.85582C475.664 4.67401 475.603 4.46733 475.605 4.2358C475.603 4.0142 475.659 3.81605 475.773 3.64134C475.887 3.46662 476.043 3.32884 476.242 3.22798C476.442 3.12713 476.67 3.0767 476.926 3.0767C477.178 3.0767 477.404 3.12713 477.603 3.22798C477.802 3.32884 477.958 3.46662 478.072 3.64134C478.187 3.81605 478.245 4.0142 478.247 4.2358C478.245 4.46733 478.182 4.67401 478.057 4.85582C477.933 5.03622 477.769 5.15341 477.565 5.20739V5.23295C477.722 5.26136 477.865 5.32884 477.991 5.43537C478.117 5.54048 478.218 5.67187 478.294 5.82955C478.369 5.9858 478.407 6.15625 478.409 6.34091C478.407 6.5767 478.343 6.78693 478.217 6.97159C478.092 7.15483 477.918 7.29901 477.695 7.40412C477.473 7.50781 477.217 7.55966 476.926 7.55966ZM476.926 7.09091C477.123 7.09091 477.294 7.05895 477.437 6.99503C477.58 6.93111 477.691 6.84091 477.769 6.72443C477.847 6.60795 477.887 6.47159 477.889 6.31534C477.887 6.15057 477.845 6.00497 477.761 5.87855C477.677 5.75213 477.563 5.6527 477.418 5.58026C477.274 5.50781 477.11 5.47159 476.926 5.47159C476.74 5.47159 476.573 5.50781 476.427 5.58026C476.282 5.6527 476.168 5.75213 476.084 5.87855C476.002 6.00497 475.961 6.15057 475.963 6.31534C475.961 6.47159 475.999 6.60795 476.075 6.72443C476.154 6.84091 476.265 6.93111 476.41 6.99503C476.555 7.05895 476.727 7.09091 476.926 7.09091ZM476.926 5.01989C477.082 5.01989 477.22 4.98864 477.341 4.92614C477.463 4.86364 477.559 4.77628 477.629 4.66406C477.698 4.55185 477.734 4.42045 477.735 4.26989C477.734 4.12216 477.699 3.99361 477.631 3.88423C477.563 3.77344 477.468 3.68821 477.347 3.62855C477.227 3.56747 477.086 3.53693 476.926 3.53693C476.762 3.53693 476.619 3.56747 476.497 3.62855C476.375 3.68821 476.281 3.77344 476.214 3.88423C476.147 3.99361 476.115 4.12216 476.116 4.26989C476.115 4.42045 476.148 4.55185 476.216 4.66406C476.286 4.77628 476.382 4.86364 476.504 4.92614C476.626 4.98864 476.767 5.01989 476.926 5.01989Z" fill="black"/>
<rect y="10" width="80" height="20" stroke="white" stroke-width="2"/>
<path d="M40.4381 16.7273V24H39.5574V16.7273H40.4381Z" fill="black"/>
<rect x="80" y="10" width="80" height="20" stroke="white" stroke-width="2"/>
<path d="M119.115 16.7273V24H118.234V16.7273H119.115ZM121.761 16.7273V24H120.881V16.7273H121.761Z" fill="black"/>
<rect x="160" y="10" width="80" height="20" stroke="white" stroke-width="2"/>
<path d="M197.792 16.7273V24H196.911V16.7273H197.792ZM200.438 16.7273V24H199.557V16.7273H200.438ZM203.085 16.7273V24H202.204V16.7273H203.085Z" fill="black"/>
<rect x="240" y="10" width="80" height="20" stroke="white" stroke-width="2"/>
<path d="M277.059 16.7273V24H276.179V16.7273H277.059ZM279.123 16.7273L281.282 22.8494H281.368L283.527 16.7273H284.45L281.78 24H280.87L278.2 16.7273H279.123Z" fill="black"/>
<rect x="320" y="10" width="80" height="20" stroke="white" stroke-width="2"/>
<path d="M357.8 16.7273L359.959 22.8494H360.044L362.203 16.7273H363.127L360.456 24H359.547L356.877 16.7273H357.8Z" fill="black"/>
<rect x="400" y="10" width="80" height="20" stroke="white" stroke-width="2"/>
<path d="M436.477 16.7273L438.636 22.8494H438.721L440.88 16.7273H441.804L439.133 24H438.224L435.554 16.7273H436.477ZM443.817 16.7273V24H442.936V16.7273H443.817Z" fill="black"/>
<rect x="480" y="10" width="30" height="20" stroke="white" stroke-width="2"/>
<path d="M490.154 16.7273L492.313 22.8494H492.398L494.557 16.7273H495.48L492.81 24H491.901L489.23 16.7273H490.154ZM497.494 16.7273V24H496.613V16.7273H497.494ZM500.14 16.7273V24H499.26V16.7273H500.14Z" fill="black"/>
<path d="M74.4957 100.727V108H73.6151V100.727H74.4957ZM78.2786 106.722V102.034H79.074V106.722H78.2786ZM76.3326 104.776V103.98H81.0201V104.776H76.3326ZM83.734 100.727V108H82.8533V100.727H83.734ZM86.3805 100.727V108H85.4998V100.727H86.3805Z" fill="black"/>
<path d="M166.849 100.727V108H165.969V100.727H166.849ZM169.496 100.727V108H168.615V100.727H169.496ZM173.279 106.722V102.034H174.074V106.722H173.279ZM171.333 104.776V103.98H176.02V104.776H171.333ZM178.734 100.727V108H177.853V100.727H178.734ZM181.381 100.727V108H180.5V100.727H181.381ZM184.027 100.727V108H183.146V100.727H184.027Z" fill="black"/>
<path d="M244.794 100.727V108H243.913V100.727H244.794ZM247.44 100.727V108H246.559V100.727H247.44ZM250.087 100.727V108H249.206V100.727H250.087ZM253.869 106.722V102.034H254.665V106.722H253.869ZM251.923 104.776V103.98H256.611V104.776H251.923ZM259.325 100.727V108H258.444V100.727H259.325ZM261.389 100.727L263.548 106.849H263.633L265.792 100.727H266.716L264.045 108H263.136L260.466 100.727H261.389Z" fill="black"/>
<path d="M305.892 100.727V108H305.012V100.727H305.892ZM307.956 100.727L310.115 106.849H310.201L312.36 100.727H313.283L310.613 108H309.703L307.033 100.727H307.956ZM315.925 106.722V102.034H316.721V106.722H315.925ZM313.979 104.776V103.98H318.667V104.776H313.979ZM320.29 100.727L322.449 106.849H322.535L324.694 100.727H325.617L322.947 108H322.037L319.367 100.727H320.29Z" fill="black"/>
<path d="M385.31 100.727L387.469 106.849H387.554L389.713 100.727H390.637L387.966 108H387.057L384.387 100.727H385.31ZM393.279 106.722V102.034H394.074V106.722H393.279ZM391.333 104.776V103.98H396.02V104.776H391.333ZM397.644 100.727L399.803 106.849H399.888L402.047 100.727H402.971L400.3 108H399.391L396.721 100.727H397.644ZM404.984 100.727V108H404.103V100.727H404.984Z" fill="black"/>
<rect x="510" y="10" width="30" height="20" stroke="white" stroke-width="2"/>
<path d="M518.83 16.7273L520.989 22.8494H521.075L523.234 16.7273H524.157L521.487 24H520.578L517.907 16.7273H518.83ZM526.171 16.7273V24H525.29V16.7273H526.171ZM528.817 16.7273V24H527.936V16.7273H528.817ZM531.464 16.7273V24H530.583V16.7273H531.464Z" fill="black"/>
<path d="M129.354 96.3536C129.549 96.1583 129.549 95.8417 129.354 95.6464L126.172 92.4645C125.976 92.2692 125.66 92.2692 125.464 92.4645C125.269 92.6597 125.269 92.9763 125.464 93.1716L128.293 96L125.464 98.8284C125.269 99.0237 125.269 99.3403 125.464 99.5355C125.66 99.7308 125.976 99.7308 126.172 99.5355L129.354 96.3536ZM33 96V96.5H129V96V95.5H33V96Z" fill="#A03123"/>
<path d="M449.354 96.3536C449.549 96.1583 449.549 95.8417 449.354 95.6464L446.172 92.4645C445.976 92.2692 445.66 92.2692 445.464 92.4645C445.269 92.6597 445.269 92.9763 445.464 93.1716L448.293 96L445.464 98.8284C445.269 99.0237 445.269 99.3403 445.464 99.5355C445.66 99.7308 445.976 99.7308 446.172 99.5355L449.354 96.3536ZM343 96V96.5H449V96V95.5H343V96Z" fill="#A03123"/>
<path d="M219.354 96.3536C219.549 96.1583 219.549 95.8417 219.354 95.6464L216.172 92.4645C215.976 92.2692 215.66 92.2692 215.464 92.4645C215.269 92.6597 215.269 92.9763 215.464 93.1716L218.293 96L215.464 98.8284C215.269 99.0237 215.269 99.3403 215.464 99.5355C215.66 99.7308 215.976 99.7308 216.172 99.5355L219.354 96.3536ZM133 96V96.5H219V96V95.5H133V96Z" fill="#A03123"/>
<path d="M289.354 96.3536C289.549 96.1583 289.549 95.8417 289.354 95.6464L286.172 92.4645C285.976 92.2692 285.66 92.2692 285.464 92.4645C285.269 92.6597 285.269 92.9763 285.464 93.1716L288.293 96L285.464 98.8284C285.269 99.0237 285.269 99.3403 285.464 99.5355C285.66 99.7308 285.976 99.7308 286.172 99.5355L289.354 96.3536ZM223 96V96.5H289V96V95.5H223V96Z" fill="#A03123"/>
<path d="M339.354 96.3536C339.549 96.1583 339.549 95.8417 339.354 95.6464L336.172 92.4645C335.976 92.2692 335.66 92.2692 335.464 92.4645C335.269 92.6597 335.269 92.9763 335.464 93.1716L338.293 96L335.464 98.8284C335.269 99.0237 335.269 99.3403 335.464 99.5355C335.66 99.7308 335.976 99.7308 336.172 99.5355L339.354 96.3536ZM293 96V96.5H339V96V95.5H293V96Z" fill="#A03123"/>
<path d="M80 30L80 79" stroke="black" stroke-opacity="0.5" stroke-width="0.5" stroke-dasharray="2 2"/>
<path d="M160 30L160 79" stroke="black" stroke-opacity="0.5" stroke-width="0.5" stroke-dasharray="2 2"/>
<path d="M240 30L240 79" stroke="black" stroke-opacity="0.5" stroke-width="0.5" stroke-dasharray="2 2"/>
<path d="M320 30L320 79" stroke="black" stroke-opacity="0.5" stroke-width="0.5" stroke-dasharray="2 2"/>
<path d="M400 30L400 79" stroke="black" stroke-opacity="0.5" stroke-width="0.5" stroke-dasharray="2 2"/>
</g>
<defs>
<clipPath id="clip0_3803_262">
<rect width="541" height="110" fill="white"/>
</clipPath>
</defs>
</svg>
